# xmcd
#
# Track frame offsets: 
#        150
#        20872
#        38790
#        54839
#        68924
#        87389
#        101514
#        118306
#        136401
#        154963
#        169788
#        185670
#
# Disc length: 2687 seconds
#
# Revision: 0
# Processed by: cddbd v1.5.2PL0 Copyright (c) Steve Scherf et al.
# Submitted via: ExactAudioCopy v1.2
#
DISCID=a90a7d0c
DTITLE=谢采妘 - 两代情
DYEAR=1987
DGENRE=Pop
TTITLE0=没有留下地址
TTITLE1=谢谢你
TTITLE2=爱的品尝
TTITLE3=也许-记得
TTITLE4=梦红楼
TTITLE5=挥不去的影子
TTITLE6=我心深处
TTITLE7=我们的世界
TTITLE8=让我走
TTITLE9=我等你
TTITLE10=声声慢
TTITLE11=相思结
EXTD=
EXTT0=
EXTT1=
EXTT2=
EXTT3=
EXTT4=
EXTT5=
EXTT6=
EXTT7=
EXTT8=
EXTT9=
EXTT10=
EXTT11=
PLAYORDER=
